#N canvas 571 45 683 484 10;
#X obj 133 36 key;
#X obj 133 334 dac~ 1 2;
#X floatatom 81 71 5 0 0 0 - - -, f 5;
#X text 162 37 acede às teclas do computador (e também Makey-Makey)
;
#X obj 131 69 select 119 97 98 99 100 101;
#X obj 131 103 random 10;
#X obj 129 139 + 60;
#X obj 133 298 *~;
#X msg 436 252 0.1;
#X obj 434 210 loadbang;
#X floatatom 372 252 5 0 1 0 - - -, f 5;
#X obj 209 104 random 10;
#X obj 207 140 + 78;
#X obj 130 199 meuOsc;
#X floatatom 127 167 5 0 0 0 - - -, f 5;
#X obj 209 203 meuOsc;
#X floatatom 206 171 5 0 0 0 - - -, f 5;
#X obj 291 206 meuOsc;
#X floatatom 288 174 5 0 0 0 - - -, f 5;
#X obj 291 107 random 20;
#X obj 289 143 + 54;
#X obj 218 295 *~;
#X obj 301 291 *~;
#X connect 0 0 2 0;
#X connect 0 0 4 0;
#X connect 4 0 5 0;
#X connect 4 1 11 0;
#X connect 4 2 19 0;
#X connect 5 0 6 0;
#X connect 6 0 14 0;
#X connect 7 0 1 0;
#X connect 8 0 7 1;
#X connect 8 0 22 1;
#X connect 8 0 21 1;
#X connect 9 0 8 0;
#X connect 10 0 7 1;
#X connect 10 0 21 1;
#X connect 10 0 22 1;
#X connect 11 0 12 0;
#X connect 12 0 16 0;
#X connect 13 0 7 0;
#X connect 14 0 13 0;
#X connect 15 0 21 0;
#X connect 16 0 15 0;
#X connect 17 0 22 0;
#X connect 18 0 17 0;
#X connect 19 0 20 0;
#X connect 20 0 18 0;
#X connect 21 0 1 1;
#X connect 22 0 1 1;
#X connect 22 0 1 0;
