#N canvas 0 22 791 547 10;
#X obj 112 131 mtof;
#X floatatom 112 99 5 0 0 0 - - -, f 5;
#X obj 117 438 *~;
#X obj 277 410 line~;
#X obj 431 307 delay 100;
#X obj 410 308 bng 15 250 50 0 empty empty empty 17 7 0 10 -262144
-1 -1;
#X obj 411 341 bng 15 250 50 0 empty empty empty 17 7 0 10 -262144
-1 -1;
#X obj 349 156 trigger bang;
#X obj 280 189 bng 15 250 50 0 empty empty empty 17 7 0 10 -262144
-1 -1;
#X floatatom 353 237 5 0 0 0 - - -, f 5;
#X msg 277 374 \$1 \, \$2 \$3;
#X msg 432 367 \$1 \, \$2 \$3;
#X floatatom 518 307 5 0 0 0 - - -, f 5;
#X text 554 305 release time;
#X text 531 254 sustain time;
#X text 392 246 attack time;
#X obj 277 318 pack 0 0.5 20;
#X obj 430 340 pack 0.5 0 2000;
#X obj 436 282 +;
#X floatatom 495 259 5 0 0 0 - - -, f 5;
#X text 164 186 oscilador;
#X text 143 125 conversao MIDI para frequencia;
#X obj 112 187 osc~;
#X obj 113 55 inlet;
#X obj 118 475 outlet~;
#X connect 0 0 22 0;
#X connect 1 0 0 0;
#X connect 1 0 7 0;
#X connect 2 0 24 0;
#X connect 3 0 2 1;
#X connect 4 0 6 0;
#X connect 4 0 17 0;
#X connect 5 0 4 0;
#X connect 7 0 8 0;
#X connect 8 0 9 0;
#X connect 8 0 16 0;
#X connect 9 0 16 2;
#X connect 9 0 18 1;
#X connect 10 0 3 0;
#X connect 10 0 5 0;
#X connect 11 0 3 0;
#X connect 12 0 17 2;
#X connect 16 0 10 0;
#X connect 17 0 11 0;
#X connect 18 0 4 0;
#X connect 19 0 18 0;
#X connect 22 0 2 0;
#X connect 23 0 1 0;
